<svg xmlns="http://www.w3.org/2000/svg" viewBox="0 0 100 100" fill="none">
  <!-- Dark Rounded Backdrop -->
  <rect width="100" height="100" rx="24" fill="#06050c"/>
  <rect x="3" y="3" width="94" height="94" rx="21" stroke="url(#borderGrad)" stroke-width="4"/>

  <!-- Elegant 'S' Letter Path for Sharad -->
  <path d="M66 37C66 31.4772 61.5228 27 56 27H44C38.4772 27 34 31.4772 34 37C34 42.5228 38.4772 47 44 47H56C61.5228 47 66 51.4772 66 57C66 62.5228 61.5228 67 56 67H40C34.4772 67 30 62.5228 30 57" stroke="url(#textGrad)" stroke-width="11" stroke-linecap="round"/>

  <!-- Code Accent Dot -->
  <circle cx="72" cy="67" r="5.5" fill="#ec4899" />

  <defs>
    <linearGradient id="borderGrad" x1="0" y1="0" x2="100" y2="100" gradientUnits="userSpaceOnUse">
      <stop stop-color="#6366f1"/>
      <stop offset="0.5" stop-color="#a855f7"/>
      <stop offset="1" stop-color="#ec4899"/>
    </linearGradient>
    <linearGradient id="textGrad" x1="30" y1="27" x2="72" y2="67" gradientUnits="userSpaceOnUse">
      <stop stop-color="#6366f1"/>
      <stop offset="0.5" stop-color="#a855f7"/>
      <stop offset="1" stop-color="#ec4899"/>
    </linearGradient>
  </defs>
</svg>